<svg width="300" viewBox="0 0 102.68 84.434" xmlns="http://www.w3.org/2000/svg">
    <g
        fill="#fff"
        stroke-linecap="round"
        stroke-linejoin="round"
        stroke-width="4.5"
    >
        <g stroke="#ffb833" transform="translate(-21.334 -73.206)">
            <path d="M82.434 124.13H74.93V95.525c0-8.11 1.788-11.416 5.576-15.307 3.006-3.088 7.282-4.75 12.022-4.75h10.843c4.871 0 9.38 1.377 12.547 4.492 3.928 3.862 5.835 7.351 5.835 15.462v28.709h-7.694"/>
            <path d="M108.14 98.422a9.64 9.64 0 0 1-9.64 9.64 9.64 9.64 0 0 1-9.64-9.64 9.64 9.64 0 0 1 9.64-9.64 9.64 9.64 0 0 1 9.64 9.64z"/>
            <path d="M93.584 108.1h10.307c5.867 0 10.59 4.723 10.59 10.59v2.719c0 2.82 1.215 9.918-9.97 9.918H93.12c-11.082 0-10.125-6.633-10.125-9.918v-2.719c0-5.867 4.723-10.59 10.59-10.59z"/>
        </g>
        <g stroke="#ff4e33" transform="translate(-72.669 -73.151)">
            <path d="M82.925 124.13H74.93V95.525c0-8.11 1.789-11.416 5.577-15.307 3.005-3.088 7.282-4.75 12.022-4.75h10.843c4.87 0 9.379 1.377 12.547 4.492 3.928 3.862 5.834 7.351 5.834 15.462v28.709h-7.195" />
            <path d="M108.14 98.465a9.64 9.64 0 0 1-9.64 9.64 9.64 9.64 0 0 1-9.64-9.64 9.64 9.64 0 0 1 9.64-9.64 9.64 9.64 0 0 1 9.64 9.64z"/>
            <path d="M93.584 108.1h10.307c5.867 0 10.59 4.723 10.59 10.59v2.719c0 2.82 1.215 9.918-9.97 9.918H93.12c-11.082 0-10.125-6.633-10.125-9.918v-2.719c0-5.867 4.723-10.59 10.59-10.59z"/>
        </g>
        <g stroke="#ff7b33" transform="translate(-46.77 -49.005)">
            <path d="M81.995 124.13H74.93V95.525c0-8.11 1.788-11.416 5.576-15.307 3.006-3.088 7.282-4.75 12.022-4.75h10.843c4.87 0 9.38 1.377 12.547 4.492 3.928 3.862 5.835 7.351 5.835 15.462v28.709h-7.487" />
            <path d="M107.91 98.422a9.64 9.64 0 0 1-9.64 9.64 9.64 9.64 0 0 1-9.64-9.64 9.64 9.64 0 0 1 9.64-9.64 9.64 9.64 0 0 1 9.64 9.64z"/>
            <path d="M93.055 108.1h10.307c5.867 0 10.59 4.723 10.59 10.59v2.719c0 2.82 1.215 9.918-9.97 9.918H92.591c-11.082 0-10.125-6.633-10.125-9.918v-2.719c0-5.867 4.723-10.59 10.59-10.59z"/>
        </g>
    </g>
</svg>
